<?xml version="1.0" encoding="UTF-8" standalone="no"?>
<!-- Created with Inkscape (http://www.inkscape.org/) -->

<svg
   xmlns:dc="http://purl.org/dc/elements/1.1/"
   xmlns:cc="http://creativecommons.org/ns#"
   xmlns:rdf="http://www.w3.org/1999/02/22-rdf-syntax-ns#"
   xmlns:svg="http://www.w3.org/2000/svg"
   xmlns="http://www.w3.org/2000/svg"
   xmlns:sodipodi="http://sodipodi.sourceforge.net/DTD/sodipodi-0.dtd"
   xmlns:inkscape="http://www.inkscape.org/namespaces/inkscape"
   width="147.74402"
   height="25"
   viewBox="0 0 39.090604 6.6145835"
   version="1.1"
   id="svg8"
   inkscape:version="0.92.4 (5da689c313, 2019-01-14)"
   sodipodi:docname="logo-bookmark-white.svg">
  <defs
     id="defs2" />
  <sodipodi:namedview
     id="base"
     pagecolor="#ffffff"
     bordercolor="#666666"
     borderopacity="1.0"
     inkscape:pageopacity="0.0"
     inkscape:pageshadow="2"
     inkscape:zoom="2.8284271"
     inkscape:cx="122.75525"
     inkscape:cy="12.193025"
     inkscape:document-units="px"
     inkscape:current-layer="layer1"
     showgrid="false"
     units="px"
     fit-margin-top="0"
     fit-margin-left="0"
     fit-margin-right="0"
     fit-margin-bottom="0"
     inkscape:window-width="1366"
     inkscape:window-height="713"
     inkscape:window-x="-8"
     inkscape:window-y="-8"
     inkscape:window-maximized="1" />
  <metadata
     id="metadata5">
    <rdf:RDF>
      <cc:Work
         rdf:about="">
        <dc:format>image/svg+xml</dc:format>
        <dc:type
           rdf:resource="http://purl.org/dc/dcmitype/StillImage" />
        <dc:title></dc:title>
      </cc:Work>
    </rdf:RDF>
  </metadata>
  <g
     inkscape:label="Layer 1"
     inkscape:groupmode="layer"
     id="layer1"
     transform="translate(-36.395177,-48.764125)">
    <g
       id="g864"
       transform="matrix(0.94343146,0,0,0.94343146,3.1644714,2.9456042)">
      <path
         id="path833"
         d="m 46.18476,50.430735 h 1.382977 c 0.197379,0 0.379413,0.04101 0.545571,0.123296 0.166423,0.08229 0.297127,0.194469 0.392642,0.336021 0.09551,0.141552 0.143404,0.296333 0.143404,0.464079 0,0.1778 -0.04366,0.331788 -0.130969,0.461963 -0.08731,0.12991 -0.201612,0.229658 -0.343164,0.298714 v 0.03969 c 0.184414,0.06562 0.330729,0.170127 0.439473,0.313531 0.108479,0.14314 0.162983,0.315119 0.162983,0.515938 0,0.194468 -0.05186,0.366447 -0.155575,0.516202 a 1.0099146,1.0099146 0 0 1 -0.419894,0.34581 c -0.175948,0.0807 -0.37121,0.120915 -0.585258,0.120915 h -1.43219 z m 1.3335,1.44198 c 0.144992,0 0.260879,-0.04022 0.348192,-0.120915 0.08731,-0.0807 0.130969,-0.182033 0.130969,-0.303742 0,-0.118533 -0.04207,-0.218016 -0.125942,-0.298979 -0.08414,-0.08043 -0.195263,-0.120914 -0.333375,-0.120914 H 46.85151 v 0.84455 z m 0.07408,1.486693 c 0.161395,0 0.287337,-0.04207 0.377825,-0.125941 0.09049,-0.08387 0.135731,-0.193411 0.135731,-0.328348 0,-0.134938 -0.04604,-0.245269 -0.138113,-0.330994 -0.09234,-0.08573 -0.224102,-0.128323 -0.395287,-0.128323 h -0.72099 v 0.913606 z m 3.420268,0.686594 c -0.34581,0 -0.659341,-0.08149 -0.940858,-0.244475 a 1.7756187,1.7756187 0 0 1 -0.664369,-0.669396 c -0.161396,-0.283104 -0.242094,-0.594254 -0.242094,-0.93345 0,-0.338931 0.0807,-0.650081 0.242094,-0.93345 A 1.7756187,1.7756187 0 0 1 50.071489,50.5961 c 0.282046,-0.162983 0.595313,-0.244475 0.941388,-0.244475 0.345546,0 0.659341,0.08149 0.940858,0.244475 a 1.7756187,1.7756187 0 0 1 0.664104,0.669396 c 0.161396,0.283104 0.242094,0.594254 0.242094,0.933185 0,0.339196 -0.0807,0.650346 -0.242094,0.93345 a 1.7756187,1.7756187 0 0 1 -0.664104,0.669396 c -0.281517,0.162983 -0.595312,0.244475 -0.940858,0.244475 z m 0,-0.632354 a 1.1959167,1.1959167 0 0 0 0.597429,-0.152929 1.1051646,1.1051646 0 0 0 0.427302,-0.429684 c 0.103717,-0.184414 0.155575,-0.395287 0.155575,-0.632354 0,-0.237066 -0.05186,-0.447675 -0.155575,-0.632089 a 1.1051646,1.1051646 0 0 0 -0.427302,-0.429684 1.1959167,1.1959167 0 0 0 -0.597429,-0.153193 1.1826875,1.1826875 0 0 0 -0.595312,0.153193 1.1099271,1.1099271 0 0 0 -0.424657,0.429684 c -0.103716,0.184414 -0.155575,0.395023 -0.155575,0.632354 0,0.236802 0.05186,0.447675 0.155575,0.632089 a 1.1099271,1.1099271 0 0 0 0.424657,0.429684 1.1826875,1.1826875 0 0 0 0.595312,0.152929 z m 4.062148,0.632354 c -0.34581,0 -0.659342,-0.08149 -0.940858,-0.244475 A 1.7756187,1.7756187 0 0 1 53.469794,53.132131 C 53.308398,52.849027 53.2277,52.537877 53.2277,52.198681 c 0,-0.338931 0.0807,-0.650081 0.241829,-0.93345 A 1.7756187,1.7756187 0 0 1 54.133902,50.5961 c 0.281516,-0.162983 0.595312,-0.244475 0.940858,-0.244475 0.345811,0 0.659342,0.08149 0.940858,0.244475 a 1.7756187,1.7756187 0 0 1 0.664105,0.669396 c 0.161395,0.283104 0.242093,0.594254 0.242093,0.933185 0,0.339196 -0.0807,0.650346 -0.241829,0.93345 a 1.7756187,1.7756187 0 0 1 -0.664369,0.669396 c -0.281516,0.162983 -0.595312,0.244475 -0.940858,0.244475 z m 0,-0.632354 a 1.1959167,1.1959167 0 0 0 0.597694,-0.152929 1.1051646,1.1051646 0 0 0 0.427037,-0.429684 c 0.103717,-0.184414 0.155575,-0.395287 0.155575,-0.632354 0,-0.237066 -0.05186,-0.447675 -0.155575,-0.632089 a 1.1051646,1.1051646 0 0 0 -0.427037,-0.429684 1.1959167,1.1959167 0 0 0 -0.597694,-0.153193 1.1826875,1.1826875 0 0 0 -0.595312,0.153193 1.1099271,1.1099271 0 0 0 -0.424657,0.429684 c -0.103716,0.184414 -0.155575,0.395023 -0.155575,0.632354 0,0.236802 0.05186,0.447675 0.155575,0.632089 a 1.1099271,1.1099271 0 0 0 0.424921,0.429684 1.1826875,1.1826875 0 0 0 0.595048,0.152929 z M 57.516864,50.431 h 0.66675 v 1.516062 h 0.03969 L 59.517114,50.431 h 0.805127 v 0.03942 l -1.278731,1.461558 1.412346,1.995488 v 0.03942 h -0.814917 l -1.056746,-1.506273 -0.40005,0.469106 v 1.037167 h -0.66675 v -3.536157 z m 3.690673,-0.07937 h 0.859367 l 0.938212,2.484437 h 0.03969 l 0.937948,-2.484437 h 0.864393 v 3.536156 h -0.661723 v -1.743339 l 0.03969,-0.58764 h -0.03969 L 63.28637,53.887786 H 62.767787 L 61.86397,51.556807 h -0.03942 l 0.03969,0.58764 v 1.743604 H 61.20728 V 50.35163 Z m 5.503333,0 h 0.765705 l 1.328472,3.536156 h -0.735806 l -0.296333,-0.84455 h -1.353344 l -0.296333,0.84455 h -0.735806 z m 0.844815,2.07936 -0.31115,-0.889 -0.128588,-0.42492 h -0.03942 l -0.128323,0.42492 -0.316177,0.889 h 0.923395 z m 1.79414,-2.07936 h 1.289049 c 0.230453,0 0.435505,0.04763 0.614892,0.14314 0.179388,0.09551 0.318558,0.22807 0.417248,0.397668 0.09895,0.169334 0.148167,0.361421 0.148167,0.575469 0,0.227013 -0.07144,0.428625 -0.214842,0.604838 a 1.2215812,1.2215812 0 0 1 -0.540808,0.382852 l -0.0048,0.03439 0.948267,1.358371 v 0.03969 H 71.241294 L 70.327687,52.55931 h -0.31115 v 1.328473 h -0.666749 z m 1.284022,1.595437 c 0.151607,0 0.275167,-0.0463 0.370417,-0.138377 0.09551,-0.09234 0.143404,-0.20902 0.143404,-0.350837 0,-0.134938 -0.04551,-0.250031 -0.135996,-0.345546 -0.09049,-0.09551 -0.213254,-0.143404 -0.36777,-0.143404 h -0.627328 v 0.9779 h 0.617273 z m 1.912938,-1.595437 h 0.66675 v 1.516062 h 0.03969 l 1.293813,-1.516062 h 0.805127 v 0.03969 l -1.27926,1.461823 1.412875,1.995223 v 0.03969 h -0.81492 l -1.057275,-1.506538 -0.40005,0.469107 v 1.037166 h -0.66675 z"
         inkscape:connector-curvature="0"
         style="fill:#ffffff;fill-rule:nonzero;stroke-width:0.26458332" />
      <g
         transform="matrix(0.26458333,0,0,0.26458333,36.395177,48.764125)"
         id="g839"
         style="fill:none;fill-rule:evenodd">
        <circle
           id="circle835"
           r="12.5"
           cy="12.5"
           cx="12.5"
           style="fill:#5267df" />
        <path
           id="path837"
           d="M 9,9 V 19 L 12.54,15.56 16.078,19 V 9 a 2,2 0 0 0 -2,-2 H 11 A 2,2 0 0 0 9,9 Z"
           inkscape:connector-curvature="0"
           style="fill:#ffffff" />
      </g>
    </g>
  </g>
</svg>
